# xmcd CD database file
#
# Track frame offsets:
#	150
#	13592
#	30067
#	43630
#	61995
#	73780
#	88517
#	100005
#	115117
#	132187
#	142242
#	153967
#	169790
#	183030
#	199042
#	216567
#	231272
#	243022
#	257017
#	269867
#
# Disc length: 3789 seconds
#
# Revision: 1
# Processed by: cddbd v1.4PL0 Copyright (c) Steve Scherf et al.
# Submitted via: CDex 1.50
#
DISCID=140ecb14
DTITLE=Various Artist - Country Gals and Country Gentlemen Disc 3
DYEAR=1900
DGENRE=Country
TTITLE0=Dolly Parton - Here You Come Again
TTITLE1=Oak Ridge Boys - Fancy Free
TTITLE2=Terri Gibbs - Somebody's Knockin'
TTITLE3=Lionel Cartwright - Leap Of Faith
TTITLE4=Tammy Wynette - I Don't Wanna Play House
TTITLE5=Steve Wariner - Life's Highway
TTITLE6=Donna Fargo - Happiest Girl In The Whole U.S.A.
TTITLE7=Conway Twitty - I'd Love To Lay You Down
TTITLE8=Nicolette Larson - That's More About Love (Then I Wanted To Know)
TTITLE9=Statler Brothers - Do You Know You Are My Sunshine
TTITLE10=Patsy Cline - Sweet Dreams (Of You)
TTITLE11=George Jones - I Don't Need Your Rockin' Chair
TTITLE12=Janie Frickie - He's A Heartache
TTITLE13=John Anderson - Down in The Orange Grove
TTITLE14=Barbara Mandrell - Years
TTITLE15=Skip Ewing - Burnin' A Hole In My Heart
TTITLE16=Crystal Gayle - Don't It Make My Brown Eyes Blue
TTITLE17=Randy Travis - Forever Together
TTITLE18=Tanya Tucker - San Antonio Stroll
TTITLE19=Lee Greenwood - God Bless The USA
EXTD=
EXTT0=
EXTT1=
EXTT2=
EXTT3=
EXTT4=
EXTT5=
EXTT6=
EXTT7=
EXTT8=
EXTT9=
EXTT10=
EXTT11=
EXTT12=
EXTT13=
EXTT14=
EXTT15=
EXTT16=
EXTT17=
EXTT18=
EXTT19=
PLAYORDER=
